<svg width="40" height="28" viewBox="0 0 40 28" fill="none" xmlns="http://www.w3.org/2000/svg">
<path d="M37.0588 0H2.47059C1.81535 0 1.18694 0.260293 0.723619 0.723619C0.260293 1.18694 0 1.81535 0 2.47059L0 25.5294C0 26.1847 0.260293 26.8131 0.723619 27.2764C1.18694 27.7397 1.81535 28 2.47059 28H37.0588C37.7141 28 38.3425 27.7397 38.8058 27.2764C39.2691 26.8131 39.5294 26.1847 39.5294 25.5294V2.47059C39.5294 1.81535 39.2691 1.18694 38.8058 0.723619C38.3425 0.260293 37.7141 0 37.0588 0ZM36.5318 1.64706L19.7647 14.6094L2.99765 1.64706H36.5318ZM1.64706 25.1918V2.68471L14.3376 12.4929L1.64706 25.1918ZM2.80824 26.3529L15.6471 13.5141L19.2541 16.3059C19.3981 16.4167 19.5747 16.4768 19.7565 16.4768C19.9382 16.4768 20.1148 16.4167 20.2588 16.3059L23.8824 13.5141L36.7212 26.3529H2.80824ZM37.8824 25.1918L25.1918 12.4929L37.8824 2.68471V25.1918Z" fill="white"/>
</svg>
