<svg width="37" height="30" viewBox="0 0 37 30" fill="none" xmlns="http://www.w3.org/2000/svg">
<path id="&#226;&#128;&#156;" d="M29 0C30.3333 0 31.625 0.333334 32.875 1C34.125 1.75 35.125 2.83333 35.875 4.25C36.625 5.66667 37 7.41667 37 9.5C37 12.9167 36.0833 16.2083 34.25 19.375C32.3333 22.625 29.75 26.1667 26.5 30L21.25 26.75C25.3333 21.3333 27.375 17.5417 27.375 15.375C27.375 14.4583 27 13.7917 26.25 13.375C24.75 12.4583 23.625 11.5417 22.875 10.625C22.125 9.79167 21.75 8.5 21.75 6.75C21.75 4.66667 22.4167 3 23.75 1.75C25.0833 0.583334 26.8333 0 29 0ZM8.25 0C9.58333 0 10.875 0.333334 12.125 1C13.375 1.75 14.375 2.83333 15.125 4.25C15.875 5.66667 16.25 7.41667 16.25 9.5C16.25 12.9167 15.3333 16.2083 13.5 19.375C11.5833 22.625 9 26.1667 5.75 30L0.5 26.75C4.58334 21.3333 6.625 17.5417 6.625 15.375C6.625 14.4583 6.25 13.7917 5.5 13.375C4 12.4583 2.875 11.5417 2.125 10.625C1.375 9.79167 1 8.5 1 6.75C1 4.66667 1.66667 3 3 1.75C4.33333 0.583334 6.08333 0 8.25 0Z" fill="white"/>
</svg>
