<svg width="37" height="30" viewBox="0 0 37 30" fill="none" xmlns="http://www.w3.org/2000/svg">
<path id="&#226;&#128;&#156;" d="M8 30C6.66667 30 5.375 29.6667 4.125 29C2.875 28.25 1.875 27.1667 1.125 25.75C0.375 24.3333 0 22.5833 0 20.5C0 17.0833 0.916667 13.7917 2.75 10.625C4.66667 7.375 7.25 3.83333 10.5 0L15.75 3.25C11.6667 8.66667 9.625 12.4583 9.625 14.625C9.625 15.5417 10 16.2083 10.75 16.625C12.25 17.5417 13.375 18.4583 14.125 19.375C14.875 20.2083 15.25 21.5 15.25 23.25C15.25 25.3333 14.5833 27 13.25 28.25C11.9167 29.4167 10.1667 30 8 30ZM28.75 30C27.4167 30 26.125 29.6667 24.875 29C23.625 28.25 22.625 27.1667 21.875 25.75C21.125 24.3333 20.75 22.5833 20.75 20.5C20.75 17.0833 21.6667 13.7917 23.5 10.625C25.4167 7.375 28 3.83333 31.25 0L36.5 3.25C32.4167 8.66667 30.375 12.4583 30.375 14.625C30.375 15.5417 30.75 16.2083 31.5 16.625C33 17.5417 34.125 18.4583 34.875 19.375C35.625 20.2083 36 21.5 36 23.25C36 25.3333 35.3333 27 34 28.25C32.6667 29.4167 30.9167 30 28.75 30Z" fill="white"/>
</svg>
